<svg xmlns="http://www.w3.org/2000/svg" width="200" height="32" viewBox="0 0 200 32" fill="none">
	<path
		d="M33.3525 16.9572L28.4492 12.1311C28.0717 11.7595 27.4313 12.0088 27.4026 12.5356C27.3357 13.6786 26.8626 14.8029 25.9737 15.6778C23.9235 17.6957 20.5114 17.5546 18.6476 15.2591C17.2569 13.5422 17.233 11.0539 18.5998 9.31822C19.5317 8.13286 20.865 7.50725 22.227 7.43199C22.7575 7.40377 23.006 6.77346 22.6284 6.40186C21.2234 5.01894 18.9534 2.78463 17.7204 1.57105C17.2425 1.10067 16.4636 1.10067 15.9857 1.57105L10.2939 7.17328C10.0167 7.4461 9.54361 7.46962 9.23775 7.22973L9.16607 7.17328C8.97969 7.02746 8.88889 6.79227 8.9319 6.56179C9.15651 5.33409 8.88889 4.09229 7.99044 3.10919C6.51374 1.49579 3.76105 1.28882 2.06452 2.67644C0.0860217 4.29455 -0.0143369 7.18739 1.75866 8.93251C2.79092 9.94853 4.21983 10.3342 5.55317 10.099C5.76344 10.0614 5.97372 10.1414 6.10753 10.3013L6.15054 10.3531C6.37993 10.6212 6.36081 11.0445 6.10753 11.2891L0.358423 16.9572C-0.119474 17.4276 -0.119474 18.1943 0.358423 18.6647L11.8184 29.9444C14.5998 32.682 19.1111 32.682 21.8925 29.9444L33.3525 18.6647C33.8303 18.1943 33.8303 17.4276 33.3525 16.9572Z"
		fill="white" />
	<path
		d="M50.0311 10.9975H55.9522V6.82993H50.0311V1.21829H45.8925V6.82993H39.9713V10.9975H45.8925V16.675H39.9713V32H51.8136V20.8426H55.3787V32H59.5173V16.675H50.0311V10.9975ZM47.6798 27.8324H44.1147V20.8426H47.6798V27.8324Z"
		fill="white" />
	<path
		d="M83.7037 1.21829H79.7945V7.64369H73.9307V11.4914H79.7945V28.1523H75.8853V32H87.6129V28.1523H83.7037V11.4914H89.5675V7.64369H83.7037V1.21829Z"
		fill="white" />
	<path
		d="M115.713 15.5179H108.01V14.8217H115.713V7.64369H108.01V6.94752H116.693V3.7066H108.01V1.21829H103.871V3.7019H95.1876V6.94282H103.871V7.63898H96.1673V14.817H103.871V15.5132H96.1673V18.7541H103.871V19.4502H94.2127V22.6912H103.871V23.3873H96.1673V26.6283H103.871V28.7544H102.375V31.9953H108.005V26.6283H115.708V22.6912H117.663V19.4502H115.708V15.5132L115.713 15.5179ZM112.497 18.7588V19.4549H108.01V18.7588H112.497ZM112.497 10.8846V11.5808H108.01V10.8846H112.497ZM99.3883 11.5808V10.8846H103.876V11.5808H99.3883ZM112.497 23.3967H108.01V22.7006H112.497V23.3967Z"
		fill="white" />
	<path d="M54.1506 2.46009L58.8435 8.93253L62.184 6.47244L57.4863 0L54.1506 2.46009Z" fill="white" />
	<path
		d="M76.6834 1.21829H71.9761L64.5448 17.1313H68.0669V32H71.9761V12.7614H71.2879L76.6834 1.21829Z"
		fill="white" />
	<path
		d="M143.809 3.70658H122.308V7.87416H139.575V17.4887L131.57 21.1107L129.228 16.087H124.263L131.694 32H136.66L133.458 25.1418L143.809 20.4568V3.70658Z"
		fill="white" />
	<path d="M167.67 22.9405L158.447 27.1127V32L171.904 25.9086V12.7614H167.67V22.9405Z" fill="white" />
	<path
		d="M200 5.38584V1.21827L180.459 5.06598V9.23356L191.599 7.04158V14.5253H180.459V18.6929H190.246L184.029 32H188.994L195.211 18.6929H200V14.5253H195.833V6.20901L200 5.38584Z"
		fill="white" />
	<path d="M156.918 12.7614H152.358V20.4568H156.918V12.7614Z" fill="white" />
	<path d="M164.411 12.7614H159.852V20.4568H164.411V12.7614Z" fill="white" />
</svg>