<svg xmlns="http://www.w3.org/2000/svg" width="293" height="60" viewBox="0 0 293 60" fill="none">
	<path
		d="M19.3067 20.6203H30.1128V12.8061H19.3067V2.28429H11.7538V12.8061H0.947685V20.6203H11.7538V31.2656H0.947685V60H22.5599V39.0798H29.0662V60H36.6191V31.2656H19.3067V20.6203ZM15.0157 52.1858H8.50933V39.0798H15.0157V52.1858Z"
		fill="currentColor" />
	<path
		d="M80.7593 2.28429H73.625V14.3319H62.9235V21.5464H73.625V52.7855H66.4907V60H87.8936V52.7855H80.7593V21.5464H91.4607V14.3319H80.7593V2.28429Z"
		fill="currentColor" />
	<path
		d="M139.177 29.096H125.117V27.7907H139.177V14.3319H125.117V13.0266H140.965V6.94988H125.117V2.28429H117.565V6.94106H101.717V13.0178H117.565V14.3231H103.505V27.7819H117.565V29.0872H103.505V35.1639H117.565V36.4692H99.9381V42.5459H117.565V43.8512H103.505V49.928H117.565V53.9145H114.835V59.9912H125.109V49.928H139.168V42.5459H142.735V36.4692H139.168V29.0872L139.177 29.096ZM133.307 35.1727V36.478H125.117V35.1727H133.307ZM133.307 20.4086V21.714H125.117V20.4086H133.307ZM109.384 21.714V20.4086H117.573V21.714H109.384ZM133.307 43.8689H125.117V42.5636H133.307V43.8689Z"
		fill="currentColor" />
	<path d="M26.8247 4.61267L35.3894 16.7485L41.4858 12.1358L32.9124 0L26.8247 4.61267Z"
		fill="currentColor" />
	<path
		d="M67.9472 2.28429H59.3564L45.7943 32.1211H52.2221V60H59.3564V23.9277H58.1005L67.9472 2.28429Z"
		fill="currentColor" />
	<path
		d="M190.451 6.94984H151.213V14.764H182.724V32.7914L168.115 39.5825L163.841 30.1631H154.78L168.342 60H177.404L171.56 47.1409L190.451 38.3566V6.94984Z"
		fill="currentColor" />
	<path d="M233.998 43.0133L217.165 50.8364V60L241.726 48.5785V23.9276H233.998V43.0133Z"
		fill="currentColor" />
	<path
		d="M293 10.0985V2.28426L257.337 9.49872V17.3129L277.667 13.203V27.235H257.337V35.0492H275.199L263.852 60H272.914L284.261 35.0492H293V27.235H285.395V11.6419L293 10.0985Z"
		fill="currentColor" />
	<path d="M214.375 23.9276H206.054V38.3566H214.375V23.9276Z" fill="currentColor" />
	<path d="M228.05 23.9276H219.73V38.3566H228.05V23.9276Z" fill="currentColor" />
</svg>