<svg xmlns="http://www.w3.org/2000/svg" viewBox="0 0 40 40" fill="none">
	<path
		d="M20 0C16.46 0 13.34 2.28293 12.34 5.6C11.28 5.13171 10.16 4.87805 9 4.87805C6.87827 4.87805 4.84344 5.70035 3.34315 7.16404C1.84285 8.62774 1 10.6129 1 12.6829C1.00474 14.4114 1.59599 16.0897 2.68144 17.4557C3.76689 18.8218 5.28544 19.7988 7 20.2341V34.1463H33V20.2341C36.52 19.3366 39 16.2341 39 12.6829C39 10.6129 38.1571 8.62774 36.6569 7.16404C35.1566 5.70035 33.1217 4.87805 31 4.87805C29.84 4.87805 28.72 5.13171 27.66 5.6C26.66 2.28293 23.54 0 20 0ZM19 17.561H21V31.2195H19V17.561ZM13 21.4634H15V31.2195H13V21.4634ZM25 21.4634H27V31.2195H25V21.4634ZM7 36.0976V38.0488C7 38.5663 7.21071 39.0626 7.58579 39.4285C7.96086 39.7944 8.46957 40 9 40H31C31.5304 40 32.0391 39.7944 32.4142 39.4285C32.7893 39.0626 33 38.5663 33 38.0488V36.0976H7Z"
		fill="currentColor" />
</svg>