<svg xmlns="http://www.w3.org/2000/svg" viewBox="0 0 40 40" fill="none">
	<path
		d="M15.388 12L13.388 24H8V36H32V24H26.612L24.612 12H15.388ZM16 2V8H24V2C24 1.46957 24.2107 0.960859 24.5858 0.585786C24.9609 0.210714 25.4696 0 26 0C26.5304 0 27.0391 0.210714 27.4142 0.585786C27.7893 0.960859 28 1.46957 28 2V8L30 20H32C33.0609 20 34.0783 20.4214 34.8284 21.1716C35.5786 21.9217 36 22.9391 36 24V36C36 37.0609 35.5786 38.0783 34.8284 38.8284C34.0783 39.5786 33.0609 40 32 40H8C6.93913 40 5.92172 39.5786 5.17157 38.8284C4.42143 38.0783 4 37.0609 4 36V24C4 22.9391 4.42143 21.9217 5.17157 21.1716C5.92172 20.4214 6.93913 20 8 20H10L12 8V2C12 1.46957 12.2107 0.960859 12.5858 0.585786C12.9609 0.210714 13.4696 0 14 0C14.5304 0 15.0391 0.210714 15.4142 0.585786C15.7893 0.960859 16 1.46957 16 2ZM12 28H28V32H12V28Z"
		fill="currentColor" />
</svg>