<svg xmlns="http://www.w3.org/2000/svg" viewBox="0 0 40 40" fill="none">
	<path d="M5.45456 4.83784H34.5454V23.2162H5.45456V4.83784Z" fill="currentColor" />
	<path fill-rule="evenodd" clip-rule="evenodd"
		d="M3.63638 4.83784C3.63638 3.82283 4.4504 3 5.45456 3H34.5454C35.5496 3 36.3636 3.82283 36.3636 4.83784V23.2162C36.3636 24.2312 35.5496 25.0541 34.5454 25.0541H5.45456C4.4504 25.0541 3.63638 24.2312 3.63638 23.2162V4.83784ZM7.27274 6.67568V21.3784H32.7273V6.67568H7.27274Z"
		fill="currentColor" />
	<path fill-rule="evenodd" clip-rule="evenodd"
		d="M5.98926 21.4597C6.94901 21.7582 7.48764 22.7866 7.19234 23.7567L4.27994 33.3243H35.7201L32.8077 23.7567C32.5124 22.7866 33.051 21.7582 34.0107 21.4597C34.9705 21.1611 35.9879 21.7056 36.2832 22.6757L39.9196 34.6217C40.0893 35.1791 39.9871 35.7849 39.6443 36.254C39.3015 36.7232 38.7588 37 38.1818 37H1.8182C1.2412 37 0.698462 36.7232 0.355669 36.254C0.0128774 35.7849 -0.0892687 35.1791 0.0804165 34.6217L3.71678 22.6757C4.01209 21.7056 5.02951 21.1611 5.98926 21.4597Z"
		fill="currentColor" />
	<path d="M16.2727 29.6486H23.7273L25.4545 35.1622H14.5455L16.2727 29.6486Z" fill="currentColor" />
	<path fill-rule="evenodd" clip-rule="evenodd"
		d="M14.5394 29.0938C14.7787 28.3299 15.48 27.8108 16.2727 27.8108H23.7273C24.52 27.8108 25.2213 28.3299 25.4606 29.0938L27.1879 34.6073C27.3629 35.1659 27.2639 35.7753 26.9215 36.248C26.579 36.7207 26.0342 37 25.4545 37H14.5455C13.9658 37 13.421 36.7207 13.0785 36.248C12.7361 35.7753 12.6371 35.1659 12.8121 34.6073L14.5394 29.0938ZM17.6041 31.4865L17.0284 33.3243H22.9716L22.3959 31.4865H17.6041Z"
		fill="currentColor" />
</svg>