<svg
	xmlns="http://www.w3.org/2000/svg"
	viewBox="0 0 34 32"
	fill="none"
>
	<path
		d="M33.6385 16.3518L28.6932 11.4911C28.3124 11.1168 27.6666 11.3679 27.6377 11.8985C27.5702 13.0497 27.093 14.182 26.1965 15.0632C24.1287 17.0956 20.6873 16.9534 18.8075 14.6415C17.4049 12.9123 17.3808 10.4062 18.7593 8.65802C19.6992 7.46416 21.0439 6.83407 22.4176 6.75827C22.9527 6.72985 23.2033 6.09502 22.8225 5.72075C21.4054 4.32792 19.116 2.0776 17.8724 0.855314C17.3904 0.381562 16.6048 0.381562 16.1228 0.855314L10.3822 6.49771C10.1026 6.77248 9.62546 6.79617 9.31698 6.55456L9.24468 6.49771C9.05671 6.35084 8.96513 6.11397 9.00851 5.88183C9.23504 4.64534 8.96513 3.39463 8.05897 2.40449C6.56961 0.779514 3.79331 0.571063 2.08222 1.96863C0.0867594 3.59834 -0.0144599 6.51192 1.77375 8.26954C2.81486 9.29285 4.25602 9.68132 5.60079 9.44445C5.81287 9.40655 6.02495 9.48709 6.15991 9.64816L6.20329 9.70028C6.43465 9.97031 6.41537 10.3967 6.15991 10.643L0.361497 16.3518C-0.120499 16.8255 -0.120499 17.5977 0.361497 18.0715L11.9198 29.4321C14.725 32.1893 19.275 32.1893 22.0802 29.4321L33.6385 18.0715C34.1205 17.5977 34.1205 16.8255 33.6385 16.3518Z"
		fill="currentColor"
	/>
</svg>