<svg xmlns="http://www.w3.org/2000/svg" viewBox="0 0 40 40" fill="none">
	<path
		d="M36.9231 10.36H29.2308C29.2308 7.87757 28.2582 5.49682 26.5271 3.74148C24.796 1.98614 22.4482 1 20 1C17.5518 1 15.204 1.98614 13.4729 3.74148C11.7418 5.49682 10.7692 7.87757 10.7692 10.36H3.07692C2.26087 10.36 1.47824 10.6887 0.90121 11.2738C0.324175 11.8589 0 12.6525 0 13.48V36.88C0 37.7075 0.324175 38.5011 0.90121 39.0862C1.47824 39.6713 2.26087 40 3.07692 40H36.9231C37.7391 40 38.5218 39.6713 39.0988 39.0862C39.6758 38.5011 40 37.7075 40 36.88V13.48C40 12.6525 39.6758 11.8589 39.0988 11.2738C38.5218 10.6887 37.7391 10.36 36.9231 10.36ZM13.8462 18.16C13.8462 18.5737 13.6841 18.9705 13.3955 19.2631C13.107 19.5556 12.7157 19.72 12.3077 19.72C11.8997 19.72 11.5084 19.5556 11.2198 19.2631C10.9313 18.9705 10.7692 18.5737 10.7692 18.16V15.04C10.7692 14.6263 10.9313 14.2295 11.2198 13.9369C11.5084 13.6444 11.8997 13.48 12.3077 13.48C12.7157 13.48 13.107 13.6444 13.3955 13.9369C13.6841 14.2295 13.8462 14.6263 13.8462 15.04V18.16ZM20 4.12C21.6321 4.12 23.1974 4.77743 24.3514 5.94765C25.5055 7.11788 26.1538 8.70505 26.1538 10.36H13.8462C13.8462 8.70505 14.4945 7.11788 15.6486 5.94765C16.8026 4.77743 18.3679 4.12 20 4.12ZM29.2308 18.16C29.2308 18.5737 29.0687 18.9705 28.7802 19.2631C28.4916 19.5556 28.1003 19.72 27.6923 19.72C27.2843 19.72 26.893 19.5556 26.6045 19.2631C26.3159 18.9705 26.1538 18.5737 26.1538 18.16V15.04C26.1538 14.6263 26.3159 14.2295 26.6045 13.9369C26.893 13.6444 27.2843 13.48 27.6923 13.48C28.1003 13.48 28.4916 13.6444 28.7802 13.9369C29.0687 14.2295 29.2308 14.6263 29.2308 15.04V18.16Z"
		fill="currentColor" />
</svg>
	